HIERARCHY
ROOT hip
{
	OFFSET 0.000000 0.000000 0.000000 
	CHANNELS 6 Xposition Yposition Zposition Xrotation Zrotation Yrotation
	JOINT abdomen
	{
		OFFSET 0.000000 3.402643 0.000000 
		CHANNELS 3 Xrotation Zrotation Yrotation
		JOINT chest
		{
			OFFSET 0.000000 8.438565 -0.680529 
			CHANNELS 3 Xrotation Zrotation Yrotation
			JOINT neck
			{
				OFFSET 0.000000 10.207942 -0.272212 
				CHANNELS 3 Xrotation Zrotation Yrotation
				JOINT head
				{
					OFFSET 0.000000 3.130431 0.000000 
					CHANNELS 3 Xrotation Zrotation Yrotation
					End Site
					{
						OFFSET 0.000000 3.130435 0.000000 
					}
				}
			}
			JOINT lCollar
			{
				OFFSET 3.470700 6.669187 -0.816635 
				CHANNELS 3 Yrotation Zrotation Xrotation
				JOINT lShldr
				{
					OFFSET 3.198488 0.000000 0.000000 
					CHANNELS 3 Zrotation Yrotation Xrotation
					JOINT lForeArm
					{
						OFFSET 10.139888 0.000000 0.000000 
						CHANNELS 3 Yrotation Zrotation Xrotation
						JOINT lHand
						{
							OFFSET 8.370511 0.000000 0.000000 
							CHANNELS 3 Zrotation Yrotation Xrotation
							End Site
							{
								OFFSET 4.083176 0.000000 0.000000 
							}
						}
					}
				}
			}
			JOINT rCollar
			{
				OFFSET -3.470700 6.669187 -0.816635 
				CHANNELS 3 Yrotation Zrotation Xrotation
				JOINT rShldr
				{
					OFFSET -3.198488 0.000000 0.000000 
					CHANNELS 3 Zrotation Yrotation Xrotation
					JOINT rForeArm
					{
						OFFSET -10.139888 0.000000 0.000000 
						CHANNELS 3 Yrotation Zrotation Xrotation
						JOINT rHand
						{
							OFFSET -8.370511 0.000000 0.000000 
							CHANNELS 3 Zrotation Yrotation Xrotation
							End Site
							{
								OFFSET -4.083176 0.000000 0.000000 
							}
						}
					}
				}
			}
		}
	}
	JOINT lThigh
	{
		OFFSET 5.308129 -1.633274 1.361059 
		CHANNELS 3 Xrotation Zrotation Yrotation
		JOINT lShin
		{
			OFFSET -2.041588 -20.007561 0.000000 
			CHANNELS 3 Xrotation Zrotation Yrotation
			JOINT lFoot
			{
				OFFSET 0.000000 -19.190928 -1.224953 
				CHANNELS 3 Xrotation Yrotation Zrotation
				End Site
				{
					OFFSET 0.000000 -2.449906 4.627600 
				}
			}
		}
	}
	JOINT rThigh
	{
		OFFSET -5.308129 -1.633274 1.361059 
		CHANNELS 3 Xrotation Zrotation Yrotation
		JOINT rShin
		{
			OFFSET 2.041588 -20.007561 0.000000 
			CHANNELS 3 Xrotation Zrotation Yrotation
			JOINT rFoot
			{
				OFFSET 0.000000 -19.190928 -1.224953 
				CHANNELS 3 Xrotation Yrotation Zrotation
				End Site
				{
					OFFSET 0.000000 -2.449906 4.627600 
				}
			}
		}
	}
}
MOTION
Frames: 12
Frame Time: 0.016667
19.463558 48.545296 54.900444 -2.294922 -1.582031 -5.214844 0.000000 0.000000 0.000000 0.527344 5.439445 0.059519 -10.380860 -2.480469 0.087891 -0.048828 -5.742188 -0.205078 2.695313 -12.265624 3.046875 -1.562500 11.386719 7.150365 2.890625 3.984375 2.080078 2.138672 -3.896484 -7.587890 -3.017578 6.992188 2.460938 -6.621094 3.203125 3.281250 -3.037110 -2.236328 2.197266 -1.640625 1.279303 0.888896 8.188770 8.912544 5.598187 3.402869 -2.750212 -0.161573 0.177213 -0.765032 1.955598 6.276218 -10.161369 -2.196848 2.378346 3.869480 0.091253 2.491506 1.005011 -3.549329 
19.469776 48.543743 54.911327 -2.294922 -1.582031 -5.214844 0.000000 0.000000 0.000000 0.527344 5.439445 0.059519 -10.390625 -2.646484 0.117187 -0.048828 -5.742188 -0.205078 2.695313 -12.265624 3.046875 -1.562500 11.386719 6.974584 2.890625 3.984375 2.080078 1.962891 -3.906250 -7.403009 -3.017578 6.992188 2.460938 -6.796875 3.027344 3.291015 -3.037110 -2.236328 2.197266 -1.640625 1.279303 0.888896 8.280006 8.847285 5.599318 3.402874 -2.750206 -0.161573 0.168007 -0.760382 1.957343 6.276220 -10.161366 -2.196848 2.378346 3.869479 0.091253 2.491506 1.005010 -3.549329 
19.475992 48.543743 54.923763 -2.294922 -1.582031 -5.214844 0.000000 0.000000 0.000000 0.527344 5.439445 0.059519 -10.390625 -2.675781 -0.048828 -0.048828 -5.742188 -0.205078 2.519531 -12.451172 3.019683 -1.562500 11.562498 6.974613 2.890625 3.984375 2.080078 1.962891 -3.906250 -7.227228 -3.017578 6.992188 2.460938 -6.796875 3.027344 3.466797 -3.037110 -2.236328 2.197266 -1.640625 1.279303 0.713114 8.273824 8.841728 5.420997 3.402497 -2.750392 -0.171330 0.008447 -0.820618 2.111957 6.276219 -10.161369 -2.196848 2.378346 3.869481 0.091253 2.491506 1.005011 -3.549329 
19.482206 48.542187 54.937740 -2.294922 -1.582031 -5.214844 0.000000 0.000000 0.000000 0.527344 5.439445 0.059519 -10.380859 -2.500000 -0.087891 -0.048828 -5.742188 -0.205078 2.519531 -12.275391 3.019654 -1.562500 11.562498 6.974613 2.890625 3.984375 2.080078 1.796875 -4.091797 -7.207727 -3.017578 7.167968 2.470703 -6.796875 3.027344 3.466797 -3.037110 -2.236328 2.197266 -1.640625 1.279303 0.713114 8.382962 8.746252 5.388400 3.425038 -2.753834 -0.162865 0.014505 -0.825052 2.120776 6.277900 -10.164359 -2.018639 2.378310 3.869451 0.101011 2.503489 1.137338 -3.688881 
19.488422 48.540638 54.950176 -2.294922 -1.582031 -5.214844 0.000000 0.000000 0.000000 0.527344 5.439445 0.059519 -10.380859 -2.500000 -0.087891 -0.048828 -5.742188 -0.380859 2.519531 -12.275391 3.195436 -1.562500 11.562498 6.798832 2.890625 3.984375 2.080078 1.796875 -4.091797 -7.031945 -3.017578 7.167968 2.470703 -6.796875 3.027344 3.466797 -3.037110 -2.236328 2.197266 -1.640625 1.279303 0.713114 8.382961 8.746253 5.388400 3.425038 -2.753834 -0.162865 0.014505 -0.825052 2.120776 6.287489 -10.359915 -2.210882 2.378347 3.869480 0.091253 2.475542 1.038990 -3.920609 
19.494642 48.537529 54.964161 -2.294922 -1.582031 -5.214844 0.000000 0.000000 0.000000 0.527344 5.439445 0.059519 -10.380859 -2.500000 -0.087891 -0.048828 -5.742188 -0.380859 2.333984 -12.275390 3.154297 -1.562500 11.738281 6.796875 2.705078 3.994141 2.098929 1.796875 -4.091797 -7.031945 -3.017578 7.167968 2.470703 -6.796875 3.027344 3.466797 -3.037110 -2.236328 2.197266 -1.640625 1.279303 0.888896 8.382961 8.746253 5.388400 3.425038 -2.753834 -0.162865 0.014503 -0.825052 2.120776 6.199823 -10.418733 -1.879272 2.262101 3.949735 0.092740 2.480012 1.161477 -4.053243 
19.502409 48.535973 54.976585 -2.294922 -1.582031 -5.214844 0.000000 0.000000 0.000000 0.351563 5.439447 0.049754 -10.380859 -2.500000 -0.087891 -0.048828 -5.742188 -0.380859 2.333984 -12.275390 3.154297 -1.562500 11.914063 6.796875 2.705078 3.994141 2.098929 1.796875 -4.091797 -7.207727 -3.017578 7.167968 2.470703 -6.972656 3.027406 3.477143 -3.037110 -2.236328 2.197266 -1.640625 1.279303 0.888896 8.382961 8.746253 5.388400 3.425038 -2.753834 -0.162865 0.014505 -0.825052 2.120776 6.216639 -10.413100 -1.701086 2.263124 3.949150 0.092743 2.305240 1.214277 -4.221802 
19.508623 48.531315 54.989021 -2.294922 -1.406250 -5.224610 0.000000 0.000000 0.000000 0.351563 5.439447 -0.126028 -10.380859 -2.500000 -0.087891 -0.048828 -5.742188 -0.380859 2.158203 -12.285156 3.117312 -1.562500 11.914063 6.796875 2.705078 3.994141 2.098929 1.972656 -4.082031 -7.227256 -3.017578 7.167968 2.470703 -6.972656 3.027406 3.477143 -3.037110 -2.236328 2.197266 -1.640625 1.279303 0.888896 8.384389 8.746651 5.209895 3.425364 -2.753138 -0.172621 0.014489 -0.803443 2.118521 6.218288 -10.416151 -1.522855 2.255116 3.953725 0.092048 2.474791 1.188510 -4.603269 
19.514839 48.529758 55.003010 -2.294922 -1.406250 -5.224610 0.000000 0.000000 0.000000 0.351563 5.439447 -0.126028 -10.380859 -2.500000 -0.087891 0.126953 -5.742185 -0.401368 2.158203 -12.285156 3.117312 -1.572266 12.089844 6.623141 2.705078 3.994141 2.098929 1.972656 -4.082031 -7.227256 -3.017578 7.167968 2.470703 -6.972656 3.027406 3.477143 -2.861328 -2.246094 2.207031 -1.640625 1.279303 0.888896 8.384389 8.746651 5.209895 3.425365 -2.753137 -0.172621 0.014489 -0.803443 2.118521 6.431840 -10.483803 -1.525775 2.255112 3.953727 0.092048 2.466502 1.193823 -4.787898 
19.521059 48.526649 55.016998 -2.294922 -1.406250 -5.048828 0.000000 0.000000 0.000000 0.351563 5.439447 -0.126028 -10.380859 -2.500000 -0.087891 0.126953 -5.742185 -0.401368 2.158203 -12.285156 3.117312 -1.572266 11.914062 6.621094 2.705078 3.994141 2.098929 1.972656 -4.082031 -7.403037 -3.017578 7.167968 2.470703 -6.982422 2.851563 3.477050 -2.861328 -2.246094 2.207031 -1.796875 1.093750 1.054875 7.927178 8.679605 4.850216 3.405131 -2.752507 0.014050 0.022935 -0.873030 2.280174 6.431842 -10.483802 -1.525774 2.255111 3.953727 0.092048 2.471445 1.216238 -4.790392 
19.522610 48.526649 55.030983 -2.294922 -1.406250 -5.048828 0.000000 0.000000 0.000000 0.175781 5.439450 -0.321340 -10.380859 -2.500000 -0.087891 0.126953 -5.742185 -0.577149 2.333984 -12.451172 3.164063 -1.386719 11.738282 6.806641 2.890625 3.984375 2.080078 2.148437 -4.072266 -7.587890 -2.841797 6.992188 2.617188 -6.806641 2.675781 3.642578 -2.685547 -2.246094 2.216797 -1.796875 1.093750 1.054875 7.938437 8.671793 4.680612 3.404997 -2.752391 0.004294 -0.018883 -0.777159 2.504590 6.431841 -10.483802 -1.525774 2.255111 3.953727 0.092048 2.471445 1.216240 -4.790391 
19.522610 48.529758 55.043419 -2.294922 -1.406250 -4.873047 0.000000 0.000000 0.000000 0.175781 5.439450 -0.321340 -10.380859 -2.500000 -0.087891 0.126953 -5.742185 -0.577149 2.333984 -12.451172 3.164063 -1.386719 11.562500 6.984381 2.890625 3.984375 2.080078 2.333984 -4.238281 -7.773438 -2.841797 6.992188 2.617188 -6.806641 2.675781 3.818360 -2.509766 -2.255859 2.226947 -1.962891 0.908203 1.044922 7.933076 8.667150 4.304263 3.618934 -2.792055 -0.165722 0.077841 -0.671018 2.722000 6.450220 -10.685511 -1.739279 2.262089 4.151167 0.093078 2.282400 1.182034 -4.616813 
